<svg width="33" height="35" viewBox="0 0 33 35" fill="none" xmlns="http://www.w3.org/2000/svg">
<path d="M23 32.9999V27.1949C23.0563 26.4796 22.9596 25.7606 22.7165 25.0856C22.4734 24.4106 22.0894 23.795 21.59 23.2799C26.3 22.7549 31.25 20.9699 31.25 12.7799C31.2496 10.6856 30.444 8.6717 29 7.15491C29.6838 5.32267 29.6354 3.29743 28.865 1.49991C28.865 1.49991 27.095 0.974906 23 3.71991C19.562 2.78814 15.938 2.78814 12.5 3.71991C8.405 0.974906 6.635 1.49991 6.635 1.49991C5.86456 3.29743 5.81622 5.32267 6.5 7.15491C5.04519 8.68296 4.23878 10.7151 4.25 12.8249C4.25 20.9549 9.2 22.7399 13.91 23.3249C13.4165 23.8349 13.0359 24.443 12.793 25.1098C12.55 25.7766 12.4502 26.487 12.5 27.1949V32.9999M12.5 28.4999C5 30.7499 5 24.7499 2 23.9999L12.5 28.4999Z" stroke="white" stroke-width="3" stroke-linecap="round" stroke-linejoin="round"/>
</svg>
