<svg width="36" height="36" viewBox="0 0 36 36" fill="none" xmlns="http://www.w3.org/2000/svg">
<path d="M25.5 3H10.5C6.35786 3 3 6.35786 3 10.5V25.5C3 29.6421 6.35786 33 10.5 33H25.5C29.6421 33 33 29.6421 33 25.5V10.5C33 6.35786 29.6421 3 25.5 3Z" stroke="white" stroke-width="2.83161" stroke-linecap="round" stroke-linejoin="round"/>
<path d="M24 17.0547C24.1852 18.3031 23.9719 19.578 23.3907 20.6982C22.8094 21.8184 21.8898 22.7268 20.7625 23.2942C19.6352 23.8616 18.3577 24.0591 17.1117 23.8586C15.8657 23.6581 14.7147 23.0698 13.8223 22.1775C12.9299 21.2851 12.3416 20.134 12.1412 18.888C11.9407 17.642 12.1381 16.3646 12.7055 15.2373C13.2729 14.11 14.1813 13.1903 15.3015 12.6091C16.4217 12.0278 17.6967 11.8146 18.945 11.9997C20.2184 12.1885 21.3973 12.7819 22.3076 13.6922C23.2179 14.6024 23.8112 15.7813 24 17.0547Z" stroke="white" stroke-width="2.83161" stroke-linecap="round" stroke-linejoin="round"/>
<path d="M26.25 9.75H26.265" stroke="white" stroke-width="2.83161" stroke-linecap="round" stroke-linejoin="round"/>
</svg>
