<?xml version="1.0" standalone="no"?>
<!DOCTYPE svg PUBLIC "-//W3C//DTD SVG 20010904//EN"
 "http://www.w3.org/TR/2001/REC-SVG-20010904/DTD/svg10.dtd">
<svg version="1.0" xmlns="http://www.w3.org/2000/svg"
 width="116.000000pt" height="116.000000pt" viewBox="0 0 116.000000 116.000000"
 preserveAspectRatio="xMidYMid meet">
<metadata>
Created by potrace 1.11, written by Peter Selinger 2001-2013
</metadata>
<g transform="translate(0.000000,116.000000) scale(0.100000,-0.100000)"
fill="#000000" stroke="none">
<path d="M440 900 c0 -11 -4 -20 -10 -20 -5 0 -10 -9 -10 -20 0 -17 7 -20 50
-20 l50 0 0 -125 0 -125 40 0 c33 0 40 3 40 20 0 13 7 20 20 20 19 0 20 7 20
95 0 88 -1 95 -20 95 -18 0 -20 -7 -20 -75 0 -60 -3 -75 -15 -75 -13 0 -15 21
-15 125 l0 125 -65 0 c-58 0 -65 -2 -65 -20z"/>
<path d="M680 900 c0 -11 -4 -20 -10 -20 -5 0 -10 -9 -10 -20 0 -17 7 -20 50
-20 l50 0 0 -40 c0 -22 5 -40 10 -40 13 0 13 -47 0 -52 -6 -2 -11 -68 -11
-168 -3 -256 -1 -280 16 -280 8 0 15 9 15 20 0 11 4 20 8 20 5 0 9 91 9 202 1
136 5 204 12 206 14 5 15 52 1 52 -6 0 -10 33 -10 80 l0 80 -65 0 c-58 0 -65
-2 -65 -20z"/>
<path d="M359 778 c-1 -38 -1 -315 1 -510 l0 -68 65 0 c37 0 65 4 65 10 0 6
-18 10 -40 10 l-40 0 -1 63 c0 34 -1 169 -1 300 l0 237 -24 0 c-21 0 -24 -5
-25 -42z"/>
<path d="M533 455 c-9 -9 -13 -46 -13 -105 0 -73 3 -90 15 -90 8 0 15 9 15 20
0 11 5 20 10 20 6 0 10 32 10 75 0 60 3 75 15 75 13 0 15 -21 15 -125 l0 -125
65 0 c37 0 65 4 65 10 0 6 -20 10 -45 10 l-45 0 0 125 0 125 -47 0 c-29 -1
-53 -7 -60 -15z"/>
</g>
</svg>
