<svg width="36" height="30" viewBox="0 0 36 30" fill="none" xmlns="http://www.w3.org/2000/svg">
<path d="M34.5 1.4997C33.0636 2.51292 31.4732 3.28787 29.79 3.7947C28.8866 2.75597 27.686 2.01974 26.3506 1.68559C25.0151 1.35144 23.6092 1.4355 22.3231 1.92638C21.037 2.41727 19.9327 3.2913 19.1595 4.43028C18.3863 5.56925 17.9815 6.91821 18 8.2947V9.7947C15.364 9.86306 12.7519 9.27842 10.3965 8.09287C8.04112 6.90732 6.01548 5.15766 4.5 2.9997C4.5 2.9997 -1.5 16.4997 12 22.4997C8.91079 24.5967 5.23074 25.6481 1.5 25.4997C15 32.9997 31.5 25.4997 31.5 8.2497C31.4986 7.83188 31.4584 7.4151 31.38 7.0047C32.9109 5.49494 33.9912 3.58877 34.5 1.4997V1.4997Z" stroke="white" stroke-width="2.83161" stroke-linecap="round" stroke-linejoin="round"/>
</svg>
